HIERARCHY
ROOT Hips
{
	OFFSET 0.000000 88.474243 0.000000
	CHANNELS 6 Xposition Yposition Zposition Zrotation Yrotation Xrotation 
	JOINT Hips_Spine
	{
		OFFSET 0.000000 0.000000 0.000000
		CHANNELS 3 Zrotation Yrotation Xrotation
		JOINT Spine
		{
			OFFSET 0.005100 8.711998 -0.691000
			CHANNELS 3 Zrotation Yrotation Xrotation
			JOINT Spine1
			{
				OFFSET -0.009200 8.660301 -1.275000
				CHANNELS 3 Zrotation Yrotation Xrotation
				JOINT Spine2
				{
					OFFSET 0.006300 9.852501 -1.857000
					CHANNELS 3 Zrotation Yrotation Xrotation
					JOINT Spine2_Neck
					{
						OFFSET 0.000000 0.000000 0.000000
						CHANNELS 3 Zrotation Yrotation Xrotation
						JOINT Neck
						{
							OFFSET 0.016300 11.420799 -0.263300
							CHANNELS 3 Zrotation Yrotation Xrotation
							End Site #name: Head
							{
								OFFSET -0.019200 9.262405 2.362500
							}
						}
					}
					JOINT Spine2_LeftShoulder
					{
						OFFSET 0.000000 0.000000 0.000000
						CHANNELS 3 Zrotation Yrotation Xrotation
						JOINT LeftShoulder
						{
							OFFSET 5.616900 6.732201 -0.345700
							CHANNELS 3 Zrotation Yrotation Xrotation
							JOINT LeftArm
							{
								OFFSET 10.664888 -0.183372 -2.440700
								CHANNELS 3 Zrotation Yrotation Xrotation
								JOINT LeftForeArm
								{
									OFFSET 27.459126 0.000000 0.000000
									CHANNELS 3 Zrotation Yrotation Xrotation
									End Site #name: LeftHand
									{
										OFFSET 21.306858 0.000000 0.000000
									}
								}
							}
						}
					}
					JOINT Spine2_RightShoulder
					{
						OFFSET 0.000000 0.000000 0.000000
						CHANNELS 3 Zrotation Yrotation Xrotation
						JOINT RightShoulder
						{
							OFFSET -5.580300 6.737503 -0.344400
							CHANNELS 3 Zrotation Yrotation Xrotation
							JOINT RightArm
							{
								OFFSET -10.679335 -0.188484 -2.383900
								CHANNELS 3 Zrotation Yrotation Xrotation
								JOINT RightForeArm
								{
									OFFSET -27.503529 0.000000 0.000000
									CHANNELS 3 Zrotation Yrotation Xrotation
									End Site #name: RightHand
									{
										OFFSET -21.306808 0.000000 0.000000
									}
								}
							}
						}
					}
				}
			}
		}
	}
	JOINT Hips_LeftUpLeg
	{
		OFFSET 0.000000 0.000000 0.000000
		CHANNELS 3 Zrotation Yrotation Xrotation
		JOINT LeftUpLeg
		{
			OFFSET 6.857700 -6.739601 0.312100
			CHANNELS 3 Zrotation Yrotation Xrotation
			JOINT LeftLeg
			{
				OFFSET -0.367590 -34.731552 -4.572400
				CHANNELS 3 Zrotation Yrotation Xrotation
				End Site #name: LeftFoot
				{
					OFFSET 0.367590 -34.656704 -6.067400
				}
			}
		}
	}
	JOINT Hips_RightUpLeg
	{
		OFFSET 0.000000 0.000000 0.000000
		CHANNELS 3 Zrotation Yrotation Xrotation
		JOINT RightUpLeg
		{
			OFFSET -6.876100 -6.733299 0.301000
			CHANNELS 3 Zrotation Yrotation Xrotation
			JOINT RightLeg
			{
				OFFSET 0.347353 -34.795158 -4.515900
				CHANNELS 3 Zrotation Yrotation Xrotation
				End Site #name: RightFoot
				{
					OFFSET -0.347353 -34.589367 -6.070300
				}
			}
		}
	}
}
MOTION
Frames: 11
Frame Time: 0.041667
0.026139 0.013413 -0.041006 -4.374639 -0.390213 -6.482875 0.000000 0.000000 0.000000 1.368796 1.383586 18.129788 0.967137 0.808199 2.661249 0.000000 0.000000 0.000000 0.886965 0.736384 1.923730 0.934277 -0.900143 6.552724 0.715340 0.382181 3.386840 -8.984028 -7.810637 1.771690 -59.095063 -3.596518 11.582119 0.620039 -37.879836 -0.295019 1.465840 0.445259 3.474007 7.437943 -5.077071 0.282276 71.025896 6.054721 34.545028 -0.177257 29.706421 0.506745 0.000000 0.000000 0.000000 6.207194 6.956541 -75.458173 4.604306 -4.936643 71.693756 -0.000000 0.000000 0.000000 -3.067066 -9.076973 -63.743188 -1.433394 -0.335054 73.308741 
0.034567 0.045501 -0.115410 -4.653706 -0.078408 -4.992267 0.000000 0.000000 0.000000 2.323276 0.572157 16.201963 0.681459 0.469408 2.904076 0.000000 0.000000 0.000000 0.768257 0.430240 2.562421 0.637060 -1.548972 5.939384 0.867835 0.539693 3.287998 -7.001462 -5.676213 0.747775 -63.702470 -6.744679 7.238832 0.018540 -34.857309 0.903418 0.591040 0.332551 3.169055 6.866722 -4.555195 0.208186 71.894221 11.088699 25.129177 -0.040921 34.641887 0.307826 0.000000 0.000000 -0.000000 5.998011 7.569514 -77.228077 5.137303 -4.272151 71.836402 0.000000 -0.000000 0.000000 -2.206208 -8.892174 -68.924077 -0.637430 0.092867 73.401056 
0.029845 0.039513 -0.171662 -4.550917 0.869418 -4.427618 0.000000 0.000000 0.000000 3.267478 0.621540 17.255296 0.620792 0.526001 2.751599 0.000000 0.000000 0.000000 0.789361 0.318830 2.384495 1.264690 -1.254067 6.365798 0.780071 0.527546 3.028592 -7.251427 -5.144069 0.403796 -62.591341 -4.581779 8.534111 0.068862 -32.913485 0.646794 0.653497 0.405734 2.988182 6.311177 -4.519280 0.118319 70.750500 13.576419 24.337490 -0.025595 39.712944 -0.121682 0.000000 0.000000 -0.000000 6.070026 7.230238 -77.869725 4.914285 -4.203851 71.036659 -0.000000 -0.000000 0.000000 -2.627248 -8.814134 -70.554829 -0.903642 -0.113962 74.565433 
0.026974 0.029484 -0.225076 -4.634751 1.239693 -4.338297 0.000000 0.000000 0.000000 3.467922 1.084725 17.710672 0.577289 0.503709 3.012104 0.000000 0.000000 0.000000 0.886424 0.347961 2.314217 1.304153 -1.084952 6.974742 0.765769 0.435890 3.048214 -6.248083 -4.328232 0.216487 -64.016125 -6.280058 6.818364 0.056164 -32.237044 0.620337 0.736488 0.413887 3.160458 6.410573 -4.818495 0.075483 71.599525 15.783290 23.419449 -0.125018 44.915823 -0.350209 -0.000000 0.000000 -0.000000 5.893011 7.266544 -77.582670 4.881402 -4.028508 70.449156 -0.000000 -0.000000 0.000000 -2.528613 -9.028820 -71.495175 -0.715800 -0.183622 75.683716 
0.034450 0.024285 -0.273283 -4.731829 1.439063 -4.372385 0.000000 0.000000 0.000000 3.583289 1.280088 18.312265 0.549764 0.469084 3.277190 0.000000 0.000000 0.000000 0.894989 0.354132 2.401670 1.360889 -1.066282 7.646877 0.747138 0.357400 3.088304 -5.900875 -4.140140 0.219013 -64.628893 -7.739217 5.461383 0.072105 -32.880320 0.600213 0.756827 0.404120 3.434182 6.817691 -5.164307 -0.026094 72.090968 17.230507 23.050391 -0.249636 49.018649 -0.465181 -0.000000 0.000000 -0.000000 5.792188 7.428638 -77.436411 4.759263 -3.906723 70.311593 -0.000000 0.000000 0.000000 -2.594954 -9.015093 -71.920503 -0.523081 -0.196873 76.310643 
0.048278 0.023514 -0.318084 -4.818252 1.415679 -4.463122 0.000000 0.000000 0.000000 3.675615 1.243708 18.813657 0.541918 0.430321 3.391575 0.000000 0.000000 0.000000 0.889510 0.333081 2.531066 1.421944 -1.107637 8.018382 0.739591 0.313220 3.189089 -5.701358 -4.007489 0.199026 -64.851239 -8.550331 5.344500 0.081082 -33.718013 0.577285 0.745222 0.381820 3.600837 7.215938 -5.095072 -0.026990 72.174699 18.299865 22.377553 -0.329826 51.321439 -0.539343 -0.000000 0.000000 -0.000000 5.843875 7.611809 -77.353548 4.674077 -3.892628 70.463043 -0.000000 0.000000 0.000000 -2.720933 -8.912207 -71.937539 -0.440119 -0.202534 76.507549 
0.065024 0.026374 -0.360398 -4.863810 1.360750 -4.522160 0.000000 0.000000 0.000000 3.707851 1.164137 19.045366 0.541372 0.405534 3.428312 0.000000 0.000000 0.000000 0.887243 0.318336 2.618063 1.416970 -1.172355 8.230668 0.734064 0.295370 3.249948 -5.530992 -3.803046 0.139205 -64.654200 -8.888786 5.495885 0.085999 -34.439231 0.578427 0.740136 0.371182 3.655838 7.434819 -4.791646 0.025168 71.995643 19.004701 21.761923 -0.346683 52.227281 -0.565656 -0.000000 0.000000 -0.000000 5.922845 7.675150 -77.336608 4.624838 -3.921946 70.626636 -0.000000 0.000000 0.000000 -2.835306 -8.842412 -71.812375 -0.430149 -0.186911 76.511711 
0.080893 0.030645 -0.401016 -4.871483 1.339262 -4.532742 0.000000 0.000000 0.000000 3.719189 1.118711 19.089663 0.537030 0.390236 3.456241 0.000000 0.000000 0.000000 0.891416 0.310507 2.688657 1.366217 -1.203845 8.422409 0.743121 0.298115 3.314890 -5.428520 -3.676739 0.113244 -64.317570 -9.080528 5.836444 0.084460 -35.157054 0.589328 0.744529 0.372788 3.679518 7.498047 -4.561868 0.081969 71.801598 19.340505 21.070707 -0.323412 52.214928 -0.557578 -0.000000 0.000000 -0.000000 5.964771 7.651767 -77.433903 4.556679 -3.955313 70.821088 -0.000000 0.000000 0.000000 -2.923299 -8.778267 -71.657367 -0.453317 -0.166892 76.437255 
0.091225 0.035113 -0.440703 -4.865476 1.340131 -4.508927 0.000000 0.000000 0.000000 3.719327 1.095239 19.091649 0.537151 0.388751 3.482750 0.000000 0.000000 0.000000 0.896972 0.308522 2.753660 1.308718 -1.226358 8.555694 0.748673 0.312730 3.369322 -5.309286 -3.528632 0.085351 -64.092459 -9.005821 6.192599 0.072993 -35.781069 0.610605 0.743327 0.375912 3.694965 7.439328 -4.376716 0.121617 71.740805 19.362033 20.529253 -0.316094 52.133620 -0.535830 -0.000000 0.000000 -0.000000 5.976765 7.621642 -77.532094 4.486243 -3.996396 70.961728 -0.000000 0.000000 0.000000 -2.973566 -8.741360 -71.572929 -0.470598 -0.150214 76.373699 
0.096937 0.039413 -0.479497 -4.858007 1.356890 -4.479486 0.000000 0.000000 0.000000 3.721814 1.087626 19.122995 0.530294 0.398315 3.511889 0.000000 0.000000 0.000000 0.892720 0.314339 2.777710 1.257813 -1.242705 8.620933 0.744130 0.326638 3.391433 -5.226099 -3.366969 0.045489 -63.997761 -8.848327 6.504355 0.065251 -36.403299 0.627319 0.735375 0.380019 3.695504 7.315194 -4.295092 0.148291 71.802341 19.197069 20.006650 -0.319176 52.454764 -0.515849 -0.000000 0.000000 -0.000000 5.974535 7.587846 -77.609194 4.420117 -4.038327 71.039566 -0.000000 0.000000 0.000000 -2.989738 -8.727190 -71.567327 -0.485567 -0.135464 76.361422 
0.098843 0.043985 -0.517547 -4.853488 1.380456 -4.453979 0.000000 0.000000 0.000000 3.722686 1.069323 19.168107 0.513725 0.410828 3.527350 0.000000 0.000000 0.000000 0.880896 0.319609 2.774097 1.222762 -1.252692 8.665066 0.731983 0.337927 3.391750 -5.150986 -3.147779 -0.008579 -64.014035 -8.725701 6.784052 0.056763 -36.950065 0.638114 0.719642 0.383367 3.687632 7.142146 -4.308593 0.162446 71.955668 18.974954 19.474391 -0.331746 53.355990 -0.498992 -0.000000 0.000000 -0.000000 5.971335 7.561635 -77.666253 4.367072 -4.074463 71.072782 -0.000000 0.000000 0.000000 -2.988757 -8.727634 -71.603123 -0.497771 -0.129061 76.382481 
